<svg width="101" height="100" viewBox="0 0 101 100" fill="none" xmlns="http://www.w3.org/2000/svg">
<path d="M50.296 17.512L79 85H72.856L63.544 63.208H35.224L26.104 85H19.96L48.472 17.512H50.296ZM37.528 57.736H61.24L51.736 35.368C51.224 34.152 50.744 32.872 50.296 31.528C49.912 30.12 49.592 28.904 49.336 27.88C49.08 28.968 48.76 30.216 48.376 31.624C47.992 32.968 47.544 34.216 47.032 35.368L37.528 57.736Z" fill="#B43A8A"/>
<path d="M2.6 2.6H61C81.6554 2.6 98.4 19.3446 98.4 40V90C98.4 94.0869 95.0869 97.4 91 97.4H10C5.91309 97.4 2.6 94.0869 2.6 90V2.6Z" stroke="#B43A8A" stroke-width="5.2"/>
</svg>
