<svg width="485" height="258" viewBox="0 0 485 258" fill="none" xmlns="http://www.w3.org/2000/svg">
<path d="M56.952 45.656C54.904 45.656 53.272 45.72 52.056 45.848C50.84 45.912 49.784 46.008 48.888 46.136C48.056 46.2 47.256 46.296 46.488 46.424C45.72 46.552 44.824 46.616 43.8 46.616V107H37.944V46.424C35.896 46.104 33.944 45.528 32.088 44.696C30.296 43.864 28.76 42.552 27.48 40.76L30.648 37.496C31.992 38.776 33.592 39.736 35.448 40.376C37.304 41.016 39.512 41.336 42.072 41.336C43.544 41.336 44.792 41.304 45.816 41.24C46.84 41.112 47.864 40.984 48.888 40.856C49.912 40.728 51.032 40.632 52.248 40.568C53.528 40.44 55.192 40.376 57.24 40.376C60.248 40.376 62.968 40.92 65.4 42.008C67.896 43.032 70.008 44.504 71.736 46.424C73.464 48.28 74.808 50.488 75.768 53.048C76.728 55.544 77.208 58.264 77.208 61.208C77.208 64.216 76.728 67 75.768 69.56C74.808 72.056 73.464 74.264 71.736 76.184C70.008 78.04 67.896 79.512 65.4 80.6C62.968 81.624 60.248 82.136 57.24 82.136C56.024 82.136 54.904 82.136 53.88 82.136C52.856 82.136 51.96 82.104 51.192 82.04C50.296 82.04 49.464 82.008 48.696 81.944V76.664C49.464 76.728 50.296 76.76 51.192 76.76C51.96 76.824 52.824 76.856 53.784 76.856C54.808 76.856 55.864 76.856 56.952 76.856C59.128 76.856 61.112 76.472 62.904 75.704C64.696 74.936 66.232 73.88 67.512 72.536C68.792 71.128 69.784 69.464 70.488 67.544C71.192 65.624 71.544 63.512 71.544 61.208C71.544 58.904 71.192 56.824 70.488 54.968C69.784 53.048 68.792 51.416 67.512 50.072C66.232 48.664 64.696 47.576 62.904 46.808C61.112 46.04 59.128 45.656 56.952 45.656ZM113.555 63.992C112.979 63.928 112.339 63.832 111.635 63.704C111.059 63.576 110.387 63.48 109.619 63.416C108.915 63.352 108.115 63.32 107.219 63.32C104.595 63.32 102.227 64.152 100.115 65.816C98.0033 67.48 96.1153 69.784 94.4513 72.728V73.112V107H89.1713V73.112C89.1713 70.552 88.8513 68.344 88.2113 66.488C87.5713 64.632 86.6113 63.032 85.3313 61.688L88.5953 58.52C90.0673 59.608 91.2193 60.888 92.0513 62.36C92.8833 63.768 93.4913 65.304 93.8753 66.968C95.5393 64.024 97.4913 61.848 99.7313 60.44C101.971 58.968 104.691 58.232 107.891 58.232C108.595 58.232 109.299 58.264 110.003 58.328C110.707 58.392 111.315 58.488 111.827 58.616C112.467 58.744 113.043 58.872 113.555 59V63.992ZM142.329 107.96C138.745 107.96 135.481 107.352 132.537 106.136C129.593 104.92 127.065 103.224 124.953 101.048C122.905 98.808 121.305 96.184 120.153 93.176C119.001 90.168 118.425 86.872 118.425 83.288C118.425 79.704 119.001 76.408 120.153 73.4C121.305 70.328 122.905 67.672 124.953 65.432C127.065 63.192 129.593 61.432 132.537 60.152C135.481 58.872 138.745 58.232 142.329 58.232C145.913 58.232 149.145 58.872 152.025 60.152C154.969 61.368 157.465 63.096 159.513 65.336C161.625 67.512 163.257 70.136 164.409 73.208C165.561 76.216 166.137 79.48 166.137 83C166.137 86.584 165.561 89.912 164.409 92.984C163.257 96.056 161.625 98.712 159.513 100.952C157.465 103.128 154.969 104.856 152.025 106.136C149.145 107.352 145.913 107.96 142.329 107.96ZM142.329 63.224C139.513 63.224 136.985 63.704 134.745 64.664C132.505 65.624 130.553 66.968 128.889 68.696C127.289 70.424 126.041 72.504 125.145 74.936C124.313 77.368 123.897 80.056 123.897 83C123.897 86.008 124.313 88.76 125.145 91.256C126.041 93.688 127.289 95.768 128.889 97.496C130.553 99.224 132.505 100.568 134.745 101.528C136.985 102.488 139.513 102.968 142.329 102.968C145.081 102.968 147.577 102.488 149.817 101.528C152.121 100.504 154.073 99.128 155.673 97.4C157.273 95.608 158.489 93.496 159.321 91.064C160.217 88.568 160.665 85.816 160.665 82.808C160.665 79.864 160.217 77.208 159.321 74.84C158.489 72.408 157.273 70.328 155.673 68.6C154.073 66.872 152.121 65.56 149.817 64.664C147.577 63.704 145.081 63.224 142.329 63.224ZM179.642 58.52C180.858 59.416 181.818 60.44 182.522 61.592C183.29 62.68 183.898 63.864 184.346 65.144C184.794 66.424 185.082 67.736 185.21 69.08C185.402 70.424 185.498 71.768 185.498 73.112V131H180.218V73.112C180.218 70.552 179.898 68.344 179.258 66.488C178.618 64.632 177.658 63.032 176.378 61.688L179.642 58.52ZM177.626 43.448C177.626 42.168 178.042 41.112 178.874 40.28C179.77 39.384 180.826 38.936 182.042 38.936C183.322 38.936 184.378 39.384 185.21 40.28C186.106 41.112 186.554 42.168 186.554 43.448C186.554 44.664 186.106 45.72 185.21 46.616C184.378 47.448 183.322 47.864 182.042 47.864C180.826 47.864 179.77 47.448 178.874 46.616C178.042 45.72 177.626 44.664 177.626 43.448ZM205.301 87.8C205.877 92.792 207.445 96.568 210.005 99.128C212.629 101.688 216.437 102.968 221.429 102.968C224.117 102.968 226.677 102.52 229.109 101.624C231.541 100.728 233.973 99.64 236.405 98.36L238.901 102.392C236.661 103.928 234.037 105.24 231.029 106.328C228.085 107.416 224.885 107.96 221.429 107.96C214.197 107.96 208.725 105.848 205.013 101.624C201.365 97.336 199.541 91.224 199.541 83.288C199.541 79.96 200.021 76.792 200.981 73.784C202.005 70.776 203.413 68.12 205.205 65.816C207.061 63.512 209.269 61.688 211.829 60.344C214.389 58.936 217.237 58.232 220.373 58.232C222.741 58.232 224.981 58.584 227.093 59.288C229.205 59.928 231.029 60.888 232.565 62.168C234.165 63.384 235.413 64.92 236.309 66.776C237.269 68.568 237.749 70.584 237.749 72.824C237.749 75.64 237.141 78.008 235.925 79.928C234.709 81.848 233.109 83.384 231.125 84.536C229.205 85.688 226.965 86.52 224.405 87.032C221.909 87.544 219.317 87.8 216.629 87.8H205.301ZM220.373 62.936C218.069 62.936 215.957 63.512 214.037 64.664C212.181 65.816 210.581 67.32 209.237 69.176C207.893 71.032 206.837 73.144 206.069 75.512C205.365 77.88 205.013 80.312 205.013 82.808H216.629C219.893 82.808 222.549 82.52 224.597 81.944C226.645 81.304 228.245 80.504 229.397 79.544C230.549 78.584 231.317 77.528 231.701 76.376C232.085 75.16 232.277 73.976 232.277 72.824C232.277 69.816 231.157 67.416 228.917 65.624C226.741 63.832 223.893 62.936 220.373 62.936ZM254.888 83C254.888 89.528 256.232 94.488 258.92 97.88C261.608 101.272 265.352 102.968 270.152 102.968C272.392 102.968 274.568 102.52 276.68 101.624C278.792 100.728 280.872 99.64 282.92 98.36L285.416 102.392C283.432 103.928 281.128 105.24 278.504 106.328C275.88 107.416 273.032 107.96 269.96 107.96C263.688 107.96 258.696 105.848 254.984 101.624C251.272 97.336 249.416 91.224 249.416 83.288C249.416 80.6 249.672 77.784 250.184 74.84C250.696 71.896 251.624 69.208 252.968 66.776C254.376 64.28 256.296 62.232 258.728 60.632C261.16 59.032 264.328 58.232 268.232 58.232C270.152 58.232 272.232 58.328 274.472 58.52C276.712 58.648 278.92 58.808 281.096 59V63.992C278.6 63.8 276.136 63.64 273.704 63.512C271.272 63.32 269.224 63.224 267.56 63.224C265.128 63.224 263.08 63.768 261.416 64.856C259.816 65.944 258.536 67.416 257.576 69.272C256.616 71.064 255.912 73.176 255.464 75.608C255.08 77.976 254.888 80.44 254.888 83ZM294.495 58.616C294.495 56.056 294.175 53.848 293.535 51.992C292.895 50.136 291.935 48.536 290.655 47.192L293.919 44.024C295.135 44.92 296.095 45.944 296.799 47.096C297.567 48.184 298.175 49.368 298.623 50.648C299.071 51.928 299.359 53.24 299.487 54.584C299.679 55.928 299.775 57.272 299.775 58.616V59.192H314.943V64.472H299.775V93.272C299.775 95.128 299.967 96.696 300.351 97.976C300.735 99.192 301.247 100.184 301.887 100.952C302.527 101.656 303.295 102.168 304.191 102.488C305.087 102.808 306.015 102.968 306.975 102.968C308.127 102.968 309.343 102.808 310.623 102.488C311.903 102.104 313.119 101.688 314.271 101.24C315.423 100.728 316.447 100.216 317.343 99.704C318.303 99.128 319.071 98.68 319.647 98.36L322.143 102.392C321.631 102.776 320.799 103.288 319.647 103.928C318.559 104.568 317.279 105.208 315.807 105.848C314.335 106.424 312.735 106.904 311.007 107.288C309.343 107.736 307.679 107.96 306.015 107.96C304.479 107.96 303.007 107.704 301.599 107.192C300.255 106.744 299.039 105.976 297.951 104.888C296.927 103.736 296.095 102.232 295.455 100.376C294.815 98.456 294.495 96.088 294.495 93.272V58.616ZM58.296 149.512L87 217H80.856L71.544 195.208H43.224L34.104 217H27.96L56.472 149.512H58.296ZM45.528 189.736H69.24L59.736 167.368C59.224 166.152 58.744 164.872 58.296 163.528C57.912 162.12 57.592 160.904 57.336 159.88C57.08 160.968 56.76 162.216 56.376 163.624C55.992 164.968 55.544 166.216 55.032 167.368L45.528 189.736ZM120.194 217.768C118.53 218.152 117.026 218.344 115.682 218.344C113.57 218.344 111.714 217.96 110.114 217.192C108.578 216.488 107.234 215.528 106.082 214.312C104.93 213.096 103.97 211.72 103.202 210.184C102.434 208.584 101.826 206.984 101.378 205.384L91.2975 170.152L96.4815 168.712L106.562 203.944C107.266 206.632 108.354 208.872 109.826 210.664C111.362 212.392 113.378 213.416 115.874 213.736L130.082 168.712L135.074 170.344L120.194 217.768ZM156.638 217.96C154.462 217.96 152.414 217.672 150.494 217.096C148.638 216.52 147.006 215.656 145.598 214.504C144.254 213.352 143.198 211.912 142.43 210.184C141.662 208.456 141.278 206.472 141.278 204.232C141.278 201.544 141.854 199.304 143.006 197.512C144.222 195.72 145.79 194.28 147.71 193.192C149.63 192.04 151.774 191.24 154.142 190.792C156.574 190.344 159.038 190.12 161.534 190.12H170.846V184.744C170.846 180.776 170.046 177.864 168.446 176.008C166.846 174.152 164.318 173.224 160.862 173.224C158.302 173.224 155.71 173.768 153.086 174.856C150.462 175.944 148.318 177.128 146.654 178.408L144.062 174.376C145.918 172.712 148.35 171.272 151.358 170.056C154.43 168.84 157.598 168.232 160.862 168.232C166.238 168.232 170.11 169.608 172.478 172.36C174.91 175.048 176.126 178.824 176.126 183.688V203.176C176.126 208.104 177.374 211.912 179.87 214.6L176.606 217.768C175.262 216.744 174.206 215.592 173.438 214.312C172.67 212.968 172.062 211.56 171.614 210.088C170.398 212.52 168.542 214.44 166.046 215.848C163.55 217.256 160.414 217.96 156.638 217.96ZM156.638 212.968C158.558 212.968 160.35 212.712 162.014 212.2C163.678 211.624 165.15 210.824 166.43 209.8C167.774 208.776 168.83 207.496 169.598 205.96C170.366 204.424 170.782 202.664 170.846 200.68V195.016H161.534C159.742 195.016 157.95 195.144 156.158 195.4C154.43 195.592 152.862 196.04 151.454 196.744C150.046 197.384 148.894 198.312 147.998 199.528C147.166 200.744 146.75 202.312 146.75 204.232C146.75 207.432 147.614 209.704 149.342 211.048C151.07 212.328 153.502 212.968 156.638 212.968ZM192.848 147.304H198.128V203.272C198.128 205.832 198.448 208.04 199.088 209.896C199.728 211.752 200.688 213.352 201.968 214.696L198.704 217.864C197.488 217.032 196.496 216.04 195.728 214.888C194.96 213.736 194.352 212.52 193.904 211.24C193.52 209.96 193.232 208.648 193.04 207.304C192.912 205.96 192.848 204.616 192.848 203.272V147.304ZM227.419 217.96C225.243 217.96 223.195 217.672 221.275 217.096C219.419 216.52 217.787 215.656 216.379 214.504C215.035 213.352 213.979 211.912 213.211 210.184C212.443 208.456 212.059 206.472 212.059 204.232C212.059 201.544 212.635 199.304 213.787 197.512C215.003 195.72 216.571 194.28 218.491 193.192C220.411 192.04 222.555 191.24 224.923 190.792C227.355 190.344 229.819 190.12 232.315 190.12H241.627V184.744C241.627 180.776 240.827 177.864 239.227 176.008C237.627 174.152 235.099 173.224 231.643 173.224C229.083 173.224 226.491 173.768 223.867 174.856C221.243 175.944 219.099 177.128 217.435 178.408L214.843 174.376C216.699 172.712 219.131 171.272 222.139 170.056C225.211 168.84 228.379 168.232 231.643 168.232C237.019 168.232 240.891 169.608 243.259 172.36C245.691 175.048 246.907 178.824 246.907 183.688V203.176C246.907 208.104 248.155 211.912 250.651 214.6L247.387 217.768C246.043 216.744 244.987 215.592 244.219 214.312C243.451 212.968 242.843 211.56 242.395 210.088C241.179 212.52 239.323 214.44 236.827 215.848C234.331 217.256 231.195 217.96 227.419 217.96ZM227.419 212.968C229.339 212.968 231.131 212.712 232.795 212.2C234.459 211.624 235.931 210.824 237.211 209.8C238.555 208.776 239.611 207.496 240.379 205.96C241.147 204.424 241.563 202.664 241.627 200.68V195.016H232.315C230.523 195.016 228.731 195.144 226.939 195.4C225.211 195.592 223.643 196.04 222.235 196.744C220.827 197.384 219.675 198.312 218.779 199.528C217.947 200.744 217.531 202.312 217.531 204.232C217.531 207.432 218.395 209.704 220.123 211.048C221.851 212.328 224.283 212.968 227.419 212.968ZM297.613 217C296.589 215.08 295.917 212.936 295.597 210.568C295.277 208.136 295.117 205.992 295.117 204.136C295.117 202.6 295.149 201.16 295.213 199.816C295.277 198.472 295.341 197.064 295.405 195.592C295.533 194.056 295.629 192.424 295.693 190.696C295.821 188.968 295.885 186.984 295.885 184.744C295.885 180.776 294.989 177.864 293.197 176.008C291.405 174.152 288.685 173.224 285.037 173.224C281.581 173.224 278.669 174.088 276.301 175.816C273.933 177.48 271.629 179.848 269.389 182.92V183.112V217H264.109V183.112C264.109 180.552 263.789 178.344 263.149 176.488C262.509 174.632 261.549 173.032 260.269 171.688L263.533 168.52C265.069 169.608 266.253 170.952 267.085 172.552C267.917 174.088 268.493 175.688 268.813 177.352C270.925 174.28 273.325 172.008 276.013 170.536C278.765 169 281.773 168.232 285.037 168.232C290.669 168.232 294.765 169.576 297.325 172.264C299.885 174.952 301.165 178.76 301.165 183.688C301.165 185.992 301.101 188.104 300.973 190.024C300.909 191.88 300.813 193.64 300.685 195.304C300.621 196.968 300.557 198.568 300.493 200.104C300.429 201.64 300.397 203.176 300.397 204.712C300.397 206.824 300.557 208.84 300.877 210.76C301.197 212.68 301.805 214.76 302.701 217H297.613ZM319.201 193C319.201 199.528 320.545 204.488 323.233 207.88C325.921 211.272 329.665 212.968 334.465 212.968C336.705 212.968 338.881 212.52 340.993 211.624C343.105 210.728 345.185 209.64 347.233 208.36L349.729 212.392C347.745 213.928 345.441 215.24 342.817 216.328C340.193 217.416 337.345 217.96 334.273 217.96C328.001 217.96 323.009 215.848 319.297 211.624C315.585 207.336 313.729 201.224 313.729 193.288C313.729 190.6 313.985 187.784 314.497 184.84C315.009 181.896 315.937 179.208 317.281 176.776C318.689 174.28 320.609 172.232 323.041 170.632C325.473 169.032 328.641 168.232 332.545 168.232C334.465 168.232 336.545 168.328 338.785 168.52C341.025 168.648 343.233 168.808 345.409 169V173.992C342.913 173.8 340.449 173.64 338.017 173.512C335.585 173.32 333.537 173.224 331.873 173.224C329.441 173.224 327.393 173.768 325.729 174.856C324.129 175.944 322.849 177.416 321.889 179.272C320.929 181.064 320.225 183.176 319.777 185.608C319.393 187.976 319.201 190.44 319.201 193ZM391.352 217C390.328 215.08 389.656 212.936 389.336 210.568C389.016 208.136 388.856 205.992 388.856 204.136C388.856 202.6 388.888 201.16 388.952 199.816C389.016 198.472 389.08 197.064 389.144 195.592C389.272 194.056 389.368 192.424 389.432 190.696C389.56 188.968 389.624 186.984 389.624 184.744C389.624 180.776 388.728 177.864 386.936 176.008C385.144 174.152 382.424 173.224 378.776 173.224C375.32 173.224 372.408 174.088 370.04 175.816C367.672 177.48 365.368 179.848 363.128 182.92V217H357.848V147.304H363.128V176.68C365.176 173.8 367.512 171.688 370.136 170.344C372.824 168.936 375.704 168.232 378.776 168.232C384.408 168.232 388.504 169.576 391.064 172.264C393.624 174.952 394.904 178.76 394.904 183.688C394.904 185.992 394.84 188.104 394.712 190.024C394.648 191.88 394.552 193.64 394.424 195.304C394.36 196.968 394.296 198.568 394.232 200.104C394.168 201.64 394.136 203.176 394.136 204.712C394.136 206.824 394.296 208.84 394.616 210.76C394.936 212.68 395.544 214.76 396.44 217H391.352ZM413.239 197.8C413.815 202.792 415.383 206.568 417.943 209.128C420.567 211.688 424.375 212.968 429.367 212.968C432.055 212.968 434.615 212.52 437.047 211.624C439.479 210.728 441.911 209.64 444.343 208.36L446.839 212.392C444.599 213.928 441.975 215.24 438.967 216.328C436.023 217.416 432.823 217.96 429.367 217.96C422.135 217.96 416.663 215.848 412.951 211.624C409.303 207.336 407.479 201.224 407.479 193.288C407.479 189.96 407.959 186.792 408.919 183.784C409.943 180.776 411.351 178.12 413.143 175.816C414.999 173.512 417.207 171.688 419.767 170.344C422.327 168.936 425.175 168.232 428.311 168.232C430.679 168.232 432.919 168.584 435.031 169.288C437.143 169.928 438.967 170.888 440.503 172.168C442.103 173.384 443.351 174.92 444.247 176.776C445.207 178.568 445.687 180.584 445.687 182.824C445.687 185.64 445.079 188.008 443.863 189.928C442.647 191.848 441.047 193.384 439.063 194.536C437.143 195.688 434.903 196.52 432.343 197.032C429.847 197.544 427.255 197.8 424.567 197.8H413.239ZM428.311 172.936C426.007 172.936 423.895 173.512 421.975 174.664C420.119 175.816 418.519 177.32 417.175 179.176C415.831 181.032 414.775 183.144 414.007 185.512C413.303 187.88 412.951 190.312 412.951 192.808H424.567C427.831 192.808 430.487 192.52 432.535 191.944C434.583 191.304 436.183 190.504 437.335 189.544C438.487 188.584 439.255 187.528 439.639 186.376C440.023 185.16 440.215 183.976 440.215 182.824C440.215 179.816 439.095 177.416 436.855 175.624C434.679 173.832 431.831 172.936 428.311 172.936Z" fill="#B43A8A"/>
<path d="M2.6 2.6H395C443.27 2.6 482.4 41.7303 482.4 90V248C482.4 252.087 479.087 255.4 475 255.4H10C5.91309 255.4 2.6 252.087 2.6 248V2.6Z" stroke="#B43A8A" stroke-width="5.2"/>
</svg>
